<svg xmlns="http://www.w3.org/2000/svg" xmlns:xlink="http://www.w3.org/1999/xlink" width="100" zoomAndPan="magnify" viewBox="0 0 75 74.999997" height="100" preserveAspectRatio="xMidYMid meet" version="1.0"><defs><g/><clipPath id="94c0a40ad0"><path d="M 22.5 60.191406 L 52.5 60.191406 L 52.5 72.941406 L 22.5 72.941406 Z M 22.5 60.191406 " clip-rule="nonzero"/></clipPath><clipPath id="d0bb760c3a"><path d="M 22.5 2.054688 L 52.5 2.054688 L 52.5 14.804688 L 22.5 14.804688 Z M 22.5 2.054688 " clip-rule="nonzero"/></clipPath></defs><g fill="#6741d9" fill-opacity="1"><g transform="translate(2.860242, 59.323261)"><g><path d="M 1.859375 0 L 1.859375 -42.171875 L 14.734375 -42.171875 L 18.265625 -16.453125 L 21.796875 -42.171875 L 34.765625 -42.171875 L 34.765625 0 L 27.046875 0 L 27.046875 -30.390625 L 22.1875 0 L 14.625 0 L 9.46875 -30.390625 L 9.46875 0 Z M 1.859375 0 "/></g></g></g><g fill="#000000" fill-opacity="1"><g transform="translate(35.501353, 59.323261)"><g><path d="M 1.859375 0 L 1.859375 -42.171875 L 14.734375 -42.171875 L 18.265625 -16.453125 L 21.796875 -42.171875 L 34.765625 -42.171875 L 34.765625 0 L 27.046875 0 L 27.046875 -30.390625 L 22.1875 0 L 14.625 0 L 9.46875 -30.390625 L 9.46875 0 Z M 1.859375 0 "/></g></g></g><g clip-path="url(#94c0a40ad0)"><path fill="#000000" d="M 52.460938 66.566406 L 46.160156 60.191406 L 46.160156 64.972656 L 22.539062 64.972656 L 22.539062 68.160156 L 46.160156 68.160156 L 46.160156 72.941406 Z M 52.460938 66.566406 " fill-opacity="1" fill-rule="nonzero"/></g><g clip-path="url(#d0bb760c3a)"><path fill="#6741d9" d="M 22.539062 8.429688 L 28.839844 14.804688 L 28.839844 10.023438 L 52.460938 10.023438 L 52.460938 6.835938 L 28.839844 6.835938 L 28.839844 2.054688 Z M 22.539062 8.429688 " fill-opacity="1" fill-rule="nonzero"/></g></svg>